<svg xmlns="http://www.w3.org/2000/svg" viewBox="0 0 120 96" role="img" aria-labelledby="title">
  <title id="title">Símbolo Quero um PDF</title>
  <g fill="none" stroke="#ED7C27" stroke-width="4" stroke-linecap="round" stroke-linejoin="round">
    <path d="M24 40c0-19 14-32 31-32 15 0 28 10 31 25"/>
    <path d="M24 34c8-12 22-18 38-16 10 1 19 5 25 12-14-1-25 2-34 8-8 5-18 6-29 4z"/>
    <path d="M23 39v25c0 8 5 13 11 13 5 0 9-4 9-10V43"/>
    <path d="M88 35v24c0 8-5 13-11 13-5 0-9-4-9-10V40"/>
    <path d="M40 49c0 18 9 31 22 31 12 0 21-11 22-27"/>
    <circle cx="49" cy="56" r="2" fill="#ED7C27"/>
    <circle cx="69" cy="56" r="2" fill="#ED7C27"/>
    <path d="M55 67c5 4 10 4 15 0"/>
    <path d="M91 30l18 6 3 35-27-4 2-33z" fill="#fff"/>
    <path d="M101 36v9h9"/>
    <path d="M92 52h12M91 58h14"/>
  </g>
  <rect x="89" y="46" width="18" height="12" rx="2" fill="#ED7C27"/>
  <text x="98" y="55" fill="#fff" font-size="8" font-family="Arial, sans-serif" text-anchor="middle" font-weight="700">PDF</text>
</svg>
